#!OML:ASF I:\Actors\actors\Patient Classification 2\Patient 1\Session 1\actor1.ASF
:FULLY-SPECIFIED
:DEGREES
484
root -1.21618 18.9237 5.0889 21.6625 9.20245 -3.13687
lowerback 26.9706 1.94238 -7.73675
upperback 0.0801005 -0.231436 -2.41053
thorax -14.2978 0.343676 1.69623
lowerneck -13.9883 -3.1674 -4.65216
upperneck -4.15974 -3.59459 10.8098
head 1.31799 -1.48512 3.84979
rclavicle -7.15625e-015 -1.27222e-014
rhumerus 47.0703 54.4985 -65.4863
rradius 146.849
rwrist -24.07
rhand -31.5173 -20.0549
rfingers 7.12502
rthumb -4.78269 -49.9809
lclavicle -7.15625e-015 -1.27222e-014
lhumerus 54.0602 -44.7525 63.0887
lradius 145.464
lwrist 47.268
lhand -25.7723 -47.14
lfingers 7.12502
lthumb 0.765626 -17.1616
rfemur -17.1072 -7.67484 21.9219
rtibia -1.82882e-014
rfoot -14.6579 -14.8658
rtoes -1.15382
lfemur -34.7921 -9.96179 -2.99604
ltibia 23.856
lfoot -13.7176 11.7403
ltoes -57.4247
485
root -1.20763 18.9261 5.09913 21.6239 9.08947 -3.03149
lowerback 27.1673 1.92183 -7.3852
upperback -0.283168 -0.207888 -2.50094
thorax -14.8251 0.34848 1.39439
lowerneck -12.7082 -3.19595 -4.60846
upperneck -4.42729 -3.66907 10.5178
head 1.13766 -1.57632 4.1392
rclavicle 4.77083e-015 -2.06736e-014
rhumerus 45.5271 55.5118 -66.7217
rradius 146.57
rwrist -20.6651
rhand -31.8321 -19.8244
rfingers 7.12502
rthumb -5.08663 -49.7433
lclavicle 4.77083e-015 -2.06736e-014
lhumerus 53.8832 -45.7444 62.6571
lradius 145.196
lwrist 44.2896
lhand -26.0093 -48.2892
lfingers 7.12502
lthumb 0.536751 -18.3101
rfemur -16.9921 -7.5948 21.7235
rtibia -2.38542e-015
rfoot -14.7267 -14.8702
rtoes -1.38071
lfemur -34.6676 -10.1179 -3.12281
ltibia 23.8579
lfoot -13.8594 11.9102
ltoes -57.3016
486
root -1.19849 18.9274 5.10882 21.6075 8.9829 -2.93882
lowerback 27.1366 1.8422 -7.13717
upperback -0.352191 -0.22993 -2.46796
thorax -14.8934 0.32521 1.30489
lowerneck -12.5345 -3.20511 -4.52825
upperneck -4.38184 -3.6996 10.3637
head 1.11725 -1.5998 4.06642
rclavicle 2.14687e-014 -4.13472e-014
rhumerus 43.7752 56.4247 -68.938
rradius 146.367
rwrist -18.0288
rhand -31.3631 -19.9228
rfingers 7.12502
rthumb -4.6338 -49.8521
lclavicle 2.14687e-014 -4.13472e-014
lhumerus 54.1869 -46.2446 61.944
lradius 145
lwrist 41.29
lhand -27.0087 -48.6811
lfingers 7.12502
lthumb -0.428498 -18.7018
rfemur -16.9145 -7.51287 21.5485
rtibia -1.03368e-014
rfoot -14.8143 -14.887
rtoes -1.50703
lfemur -34.584 -10.2587 -3.2357
ltibia 23.8687
lfoot -13.9887 12.034
ltoes -57.2024
487
root -1.19043 18.9281 5.11865 21.5737 8.84389 -2.90861
lowerback 26.9473 1.7776 -6.91827
upperback -0.303274 -0.207268 -2.36081
thorax -14.7485 0.318754 1.29787
lowerneck -12.4811 -3.21572 -4.47208
upperneck -4.37877 -3.72218 10.1602
head 1.10232 -1.61742 3.98093
rclavicle -2.8625e-014 2.22639e-014
rhumerus 44.9335 55.7795 -67.4017
rradius 146.016
rwrist -16.4797
rhand -32.7162 -20.5746
rfingers 7.12502
rthumb -5.94026 -50.4714
lclavicle -2.8625e-014 2.22639e-014
lhumerus 54.5818 -46.5076 61.3347
lradius 144.747
lwrist 38.4288
lhand -27.4826 -49.1345
lfingers 7.12502
lthumb -0.886216 -19.1566
rfemur -16.829 -7.37161 21.435
rtibia -4.05521e-014
rfoot -14.9016 -14.8965
rtoes -1.47888
lfemur -34.4616 -10.1531 -3.37206
ltibia 23.8686
lfoot -14.0097 12.0051
ltoes -57.1768
488
root -1.18176 18.9277 5.12711 21.6202 8.6765 -2.87598
lowerback 26.6463 1.70977 -6.63569
upperback 0.0781756 -0.15975 -2.30337
thorax -14.9283 0.31114 1.1989
lowerneck -12.4052 -3.23672 -4.45125
upperneck -4.35165 -3.757 10.0442
head 1.09628 -1.63917 3.93347
rclavicle 4.77083e-015 -1.59028e-014
rhumerus 44.527 56.3132 -68.2404
rradius 145.959
rwrist -14.6067
rhand -33.27 -21.3354
rfingers 7.12502
rthumb -6.47486 -51.2164
lclavicle 4.77083e-015 -1.59028e-014
lhumerus 54.8272 -46.7104 60.9306
lradius 144.463
lwrist 36.1271
lhand -27.1922 -49.9501
lfingers 7.12502
lthumb -0.605686 -19.9712
rfemur -16.8485 -7.20535 21.3129
rtibia -1.11319e-014
rfoot -14.9314 -14.9184
rtoes -1.36705
lfemur -34.4284 -10.0139 -3.50794
ltibia 23.8702
lfoot -13.9924 12.0258
ltoes -57.214
489
root -1.17304 18.9295 5.12984 21.645 8.6855 -2.73339
lowerback 26.7181 1.58459 -6.39558
upperback -0.0625385 -0.247202 -2.19366
thorax -15.1314 0.267303 1.21956
lowerneck -12.2914 -3.23616 -4.44858
upperneck -4.14639 -3.77428 9.89427
head 1.14066 -1.65029 3.87896
rclavicle 1.19271e-014 -4.77083e-015
rhumerus 45.7084 55.9477 -66.6953
rradius 145.62
rwrist -12.6308
rhand -34.8232 -22.4848
rfingers 7.12502
rthumb -7.97413 -52.3144
lclavicle 1.19271e-014 -4.77083e-015
lhumerus 54.6154 -46.992 60.9045
lradius 144.2
lwrist 34.3056
lhand -27.0215 -50.7679
lfingers 7.12502
lthumb -0.440847 -20.7887
rfemur -16.8191 -7.25223 21.1286
rtibia -2.3059e-014
rfoot -14.9921 -14.9269
rtoes -1.0346
lfemur -34.4336 -10.0511 -3.7053
ltibia 23.8597
lfoot -13.9693 12.0006
ltoes -57.2087
490
root -1.16471 18.9336 5.13826 21.6153 8.58714 -2.67122
lowerback 26.5135 1.53192 -6.30474
upperback -0.0284665 -0.233007 -1.96645
thorax -14.9739 0.274526 1.4303
lowerneck -12.3348 -3.22803 -4.44071
upperneck -3.9661 -3.77502 9.65911
head 1.20014 -1.6514 3.7935
rclavicle 3.73715e-014 5.56597e-015
rhumerus 44.7395 56.4023 -67.9966
rradius 145.424
rwrist -11.0396
rhand -34.837 -22.3697
rfingers 7.12502
rthumb -7.98744 -52.1988
lclavicle 3.73715e-014 5.56597e-015
lhumerus 54.6678 -47.1143 60.7586
lradius 143.957
lwrist 32.5944
lhand -27.0368 -51.3184
lfingers 7.12502
lthumb -0.455616 -21.3392
rfemur -16.723 -7.16159 20.9968
rtibia 2.70347e-014
rfoot -15.0795 -14.9395
rtoes -0.733434
lfemur -34.3068 -9.99611 -3.84566
ltibia 23.8337
lfoot -14.065 11.9342
ltoes -57.019
